<svg xmlns="http://www.w3.org/2000/svg" xmlns:xlink="http://www.w3.org/1999/xlink" version="1.1" x="0px" y="0px" viewBox="0 0 100 100" enable-background="new 0 0 100 100" xml:space="preserve"><g display="none"><rect x="-192" display="inline" width="185" height="99"></rect><rect y="-36" display="inline" width="100" height="30"></rect><text transform="matrix(1 0 0 1 66 -19.5)" display="inline" fill="#000000" font-family="'Helvetica'" font-size="2.4">http://thenounproject.com</text><text transform="matrix(1 0 0 1 7.166 -24.5)" display="inline"><tspan x="0" y="0" fill="#000000" font-family="'Helvetica-Bold'" font-size="6.1578">The Noun Project</tspan><tspan x="1.12" y="4.8" fill="#000000" font-family="'Helvetica-Bold'" font-size="4">Icon Template</tspan></text><text transform="matrix(1 0 0 1 -178.5 10.5)" display="inline" fill="#000000" font-family="'Helvetica-Bold'" font-size="6.1578">Reminders</text><line display="inline" fill="#000000" stroke="#FFFFFF" stroke-miterlimit="10" x1="8" y1="-14.5" x2="18" y2="-14.5"></line><line display="inline" fill="#000000" stroke="#FFFFFF" stroke-miterlimit="10" x1="-179" y1="16.5" x2="-162" y2="16.5"></line><g display="inline"><g><g><rect x="-170.802" y="31.318" fill="#000000" width="8.721" height="8.642"></rect><path fill="#000000" d="M-164.455,42.312h4.747v-4.703h-4.747V42.312z M-159.266,42.749h-5.63V37.17h5.63V42.749      L-159.266,42.749z M-166.221,44.062h8.279v-8.203h-8.279V44.062L-166.221,44.062z M-157.5,44.5h-9.163v-9.079h9.163V44.5      L-157.5,44.5z"></path><polygon fill="#000000" points="-166.149,44.133 -166.292,43.991 -158.013,35.787 -157.871,35.929     "></polygon></g></g></g><rect x="-179" y="58" display="inline" fill="none" width="35" height="32.5"></rect><text transform="matrix(1 0 0 1 -179 60.1299)" display="inline"><tspan x="0" y="0" fill="#000000" font-family="'Helvetica-Bold'" font-size="3">Strokes</tspan><tspan x="0" y="5" fill="#000000" font-family="'Helvetica'" font-size="2.4">Try to keep strokes at 4px</tspan><tspan x="0" y="10" fill="#000000" font-family="'Helvetica'" font-size="2.4">Minimum stroke weight is 2px</tspan><tspan x="0" y="14.5" fill="#000000" font-family="'Helvetica'" font-size="2.4">For thicker strokes use even </tspan><tspan x="0" y="17.5" fill="#000000" font-family="'Helvetica'" font-size="2.4">numbers: 6px, 8px etc.</tspan><tspan x="0" y="22" fill="#000000" font-family="'Helvetica-Bold'" font-size="2.4">Remember to expand strokes </tspan><tspan x="0" y="25" fill="#000000" font-family="'Helvetica-Bold'" font-size="2.4">before saving as an SVG </tspan></text><rect x="-136.5" y="58" display="inline" fill="none" width="35" height="32.5"></rect><text transform="matrix(1 0 0 1 -136.5 60.1299)" display="inline"><tspan x="0" y="0" fill="#000000" font-family="'Helvetica-Bold'" font-size="3">Size</tspan><tspan x="0" y="5" fill="#000000" font-family="'Helvetica'" font-size="2.4">Cannot be wider or taller than </tspan><tspan x="0" y="8.5" fill="#000000" font-family="'Helvetica'" font-size="2.4">100px (artboard size)</tspan><tspan x="0" y="13.5" fill="#000000" font-family="'Helvetica'" font-size="2.4">Scale your icon to fill as much of </tspan><tspan x="0" y="16.5" fill="#000000" font-family="'Helvetica'" font-size="2.4">the artboard as possible</tspan></text><rect x="-94" y="58" display="inline" fill="none" width="35" height="32.5"></rect><text transform="matrix(1 0 0 1 -94 60.1299)" display="inline"><tspan x="0" y="0" fill="#000000" font-family="'Helvetica-Bold'" font-size="3">Ungroup</tspan><tspan x="0" y="5" fill="#000000" font-family="'Helvetica'" font-size="2.4">If your design has more than one </tspan><tspan x="0" y="8" fill="#000000" font-family="'Helvetica'" font-size="2.4">shape, make sure to ungroup</tspan></text><rect x="-50" y="58" display="inline" fill="none" width="35" height="32.5"></rect><text transform="matrix(1 0 0 1 -50 60.1299)" display="inline"><tspan x="0" y="0" fill="#000000" font-family="'Helvetica-Bold'" font-size="3">Save as</tspan><tspan x="0" y="5" fill="#000000" font-family="'Helvetica'" font-size="2.4">Save as .SVG and make sure “Use </tspan><tspan x="0" y="8" fill="#000000" font-family="'Helvetica'" font-size="2.4">Artboards” is checked</tspan></text><text transform="matrix(1.0074 0 0 1 -125.542 30.5933)" display="inline" fill="#000000" font-family="'Helvetica'" font-size="2.5731">100px</text><text transform="matrix(1.0074 0 0 1 -41 39)" display="inline" fill="#000000" font-family="'Helvetica-Bold'" font-size="5.1462">.SVG</text><rect x="-126.514" y="34.815" display="inline" fill="#000000" width="10.261" height="10.185"></rect><rect x="-126.477" y="31.766" display="inline" fill="#000000" width="0.522" height="2.337"></rect><rect x="-116.813" y="31.766" display="inline" fill="#000000" width="0.523" height="2.337"></rect><rect x="-127" y="32.337" display="inline" fill="#000000" width="11.233" height="0.572"></rect><g display="inline"><rect x="-83.805" y="33.844" fill="#000000" width="10.305" height="10.156"></rect><rect x="-76.809" y="28.707" fill="#000000" width="3.308" height="3.261"></rect></g><rect x="-178.5" y="22.5" display="inline" fill="#000000" stroke="#FFFFFF" stroke-miterlimit="10" width="30" height="30"></rect><rect x="-136.5" y="22.5" display="inline" fill="#000000" stroke="#FFFFFF" stroke-miterlimit="10" width="30" height="30"></rect><rect x="-93.5" y="22.5" display="inline" fill="#000000" stroke="#FFFFFF" stroke-miterlimit="10" width="30" height="30"></rect><rect x="-49.5" y="22.5" display="inline" fill="#000000" stroke="#FFFFFF" stroke-miterlimit="10" width="30" height="30"></rect></g><g><path d="M49.999,4.667C25.004,4.667,4.666,25,4.666,50c0,7.75,1.958,15.05,5.399,21.437c0,0,0.068,0.215,0.141,0.26   c7.703,14.072,22.655,23.635,39.792,23.635c16.196,0,31.266-8.73,39.337-22.787c3.926-6.83,5.998-14.625,5.998-22.544   C95.334,25,74.997,4.667,49.999,4.667z M67.547,13.254c-6.184,3.546-11.19,8.105-14.635,13.367   c-4.408,6.718-6.255,14.352-5.501,22.707c-4.448,2.493-9.264,4.093-14.335,4.757c-0.145,0.02-0.291,0.033-0.438,0.051   c-0.912-3.399-1.379-6.911-1.379-10.472c0-13.898,9.263-24.908,18.74-34.385c0,0-0.197,0,0,0   C56.279,9.278,62.227,10.708,67.547,13.254z M31.19,59.73c0.865-0.068,1.735-0.154,2.591-0.266   c5.857-0.771,11.404-2.637,16.52-5.547c4.28,2.611,7.991,5.98,10.991,9.873c-7.318,6.324-16.564,9.777-26.316,9.777   c-7.831,0-15.415-2.244-21.944-6.494c-1.584-3.414-2.708-7.078-3.291-10.918c5.664,2.424,11.817,3.697,18.025,3.697   C28.907,59.854,30.06,59.811,31.19,59.73z M50.299,50.781L50.299,50.781L50.299,50.781L50.299,50.781z M42.278,10.015   c-8.526,9.026-16.443,19.772-16.443,33.648c0,3.647,0.433,7.25,1.276,10.759c-6.216-0.1-12.347-1.641-17.835-4.472   C9.302,30.155,23.521,13.63,42.278,10.015z M18.671,75.994c5.172,1.971,10.686,2.994,16.306,2.994   c10.84,0,21.131-3.762,29.347-10.656c3.025,5.25,4.875,11.174,5.296,17.33c-5.926,3.26-12.656,5.059-19.622,5.059   C37.415,90.721,26.147,84.99,18.671,75.994z M74.731,82.334c-0.86-6.436-3.079-12.639-6.526-18.146   c-3.852-6.162-9.142-11.35-15.37-15.075c-0.523-5.508,0.309-10.689,2.391-15.367c6.957,2.15,13.337,6.224,18.217,11.673   c6.52,7.284,10.642,17.079,10.642,26.868l0,0C81.53,76.18,78.356,79.564,74.731,82.334z M88.309,63.826   c-1.561-8.137-5.317-15.87-10.826-22.022c-5.271-5.886-12.085-10.355-19.54-12.878c3.448-5.008,8.55-9.254,15.132-12.463   C83.725,23.814,90.726,36.106,90.726,50C90.726,54.732,89.894,59.41,88.309,63.826z"></path></g></svg>