<?xml version="1.0" encoding="UTF-8" standalone="no"?>
<svg xmlns:rdf="http://www.w3.org/1999/02/22-rdf-syntax-ns#" xmlns="http://www.w3.org/2000/svg" xml:space="preserve" height="175.84" viewBox="0 0 155 175.83594" width="155" version="1.1" xmlns:cc="http://creativecommons.org/ns#" xmlns:dc="http://purl.org/dc/elements/1.1/"><g transform="matrix(1.25 0 0 -1.25 -87.762 570.18)"><g transform="translate(.76728 .76728)"><path d="m76.635 0c-4.846 3.4988-8.611 8.5577-11.332 13.209-0.907-3.3-1.442-5.4844-1.442-5.4844-11.76 7.5714-14.363 18.689-14.363 18.689h-26.398l45.092 64.809c-22.596-1.17-43.385-6.5777-57.309-14.553l-7.5666 9.611c20.879 6.405 46.127 10.152 73.324 10.152 27.196 0 52.443-3.7466 73.32-10.15l-7.5645-9.6113c-13.928 7.9762-34.72 13.381-57.318 14.551l45.094-64.809h-26.389s-2.6116-11.118-14.369-18.689c0 0-0.53391 2.1844-1.4414 5.4844-2.732-4.6513-6.493-9.7102-11.345-13.209zm0.0059 146.28c-27.198 0-52.446 3.7493-73.326 10.154l7.5664 9.6094c15.799-9.0463 39.394-14.791 65.76-14.791 26.365 0 49.955 5.7434 65.754 14.787l7.5664-9.6074c-20.879-6.405-46.123-10.152-73.32-10.152z" transform="matrix(.8 0 0 -.8 70.21 454.54)" fill="#066"/><path d="m76.641 7.0625c-6.6538 5.4438-10.491 11.921-12.529 16.326-0.8925-2.55-1.684-5.0291-2.3965-7.4141-4.04 4.7238-6.8746 10.323-8.8809 15.6h-15.396l39.197 63.264 39.057-63.264h-15.24c-2.0062-5.2762-4.8409-10.876-8.8809-15.6-0.71 2.385-1.5015 4.8641-2.3965 7.4141-2.035-4.405-5.877-10.882-12.533-16.326zm-76.641 86.954v54.244c9.7925-2.0325 19.647-3.4494 29.551-4.4707l0.01758-44.859c-3.49-0.44125-6.9705-0.92524-10.449-1.459l-0.0059 39.258c0 0.36-1.9652 0.8325-4.3789 1.0938-2.4112 0.26125-4.3672 0.19235-4.3672-0.1914l0.002-41.619c-3.4638-0.61625-6.9204-1.285-10.369-2zm153 0.002c-3.3238 0.69-6.6566 1.3348-9.9941 1.9336l0.002 41.547c-0.001 0.345-1.51 0.44273-3.375 0.24023-1.8638-0.205-3.3789-0.62312-3.3789-0.95312l-0.008-39.684c-3.3225 0.53375-6.6566 1.0213-9.9941 1.4688l0.0137 37.363c0 0.31375-1.519 0.44766-3.3965 0.31641-1.875-0.13375-3.3984-0.47023-3.3984-0.77148l-0.0137-36.068c-3.3688 0.3875-6.7402 0.72829-10.115 1.0195l-0.004 42.182c14.659 0.9825 29.23 2.6636 43.662 5.6523v-54.246zm-116.35 5.7363-0.01563 43.383c3.4925-0.295 6.9916-0.54164 10.494-0.74414l0.01172-19.674c2.27 5.305 4.5548 10.488 7.1523 16.445 1.7225 3.1425 4.9199 2.667 4.9199 2.6758 2.3825-0.0825 4.7666-0.1425 7.1504-0.1875l0.0078-39.926c-3.5112-0.0925-7.0205-0.23523-10.529-0.42773l-0.0078 16.121c-2.8962-5.425-5.7923-10.964-8.6836-16.697-3.5-0.275-7.0025-0.59875-10.5-0.96876zm66.125 1.1934c-9.9537 0.69375-19.934 0.99539-29.908 0.90039l-0.002 39.721c9.9812-0.0675 19.969 0.13789 29.928 0.65039l-0.004-15.787h-10.523c0 2.3888 0.000703 4.9267 0.002 7.6055 0 0.30875-1.9872 0.50766-4.4297 0.47266-2.4438-0.035-4.4322-0.29375-4.4297-0.59375-0.0025-9.3588-0.0014-15.07-0.0039-24.432 0-0.30001 1.9808-0.56875 4.4258-0.625 2.4462-0.055 4.4252 0.12523 4.4277 0.42773 0.0025 2.9062 0.0039 5.1337 0.0039 7.7012l0.56055-0.0176c10.445-0.30875 9.9574-6.4732 9.9512-6.5332l0.002-9.4902zm-68.512 62.883c-0.66875 0-1.1716 0.0391-1.5078 0.11914-0.3375 0.0813-0.62383 0.22172-0.86133 0.41797-0.275 0.2275-0.48516 0.5175-0.62891 0.875-0.145 0.35625-0.2168 0.76304-0.2168 1.2168v0.60547c0 0.805 0.18383 1.4103 0.54883 1.8203 0.365 0.40875 0.94188 0.65664 1.7344 0.74414l2.127 0.23047c0.44625 0.0525 0.73188 0.12921 0.85938 0.23046 0.12625 0.1 0.18945 0.26555 0.18945 0.49805v0.42578c0 0.27125-0.07828 0.46086-0.23828 0.56836-0.15875 0.1075-0.43844 0.16016-0.83594 0.16016h-0.65625c-0.4775 0-0.81055-0.0709-0.99805-0.21094-0.18875-0.13875-0.2832-0.38648-0.2832-0.74023v-0.0977h-2.5137v0.67578c0 0.8575 0.25984 1.4832 0.77734 1.877 0.51875 0.39375 1.349 0.58985 2.4902 0.58985h2.1348c0.84875 0 1.5248-0.24352 2.0273-0.72852 0.50375-0.485 0.75391-1.1334 0.75391-1.9434v-0.93945c0-0.7075-0.20594-1.2572-0.61719-1.6484-0.41-0.3925-1.0341-0.63617-1.8691-0.73242l-1.9375-0.21484c-0.70375-0.08-1.0547-0.29946-1.0547-0.65821v-0.40625c0-0.24125 0.07617-0.40906 0.23242-0.50781 0.155-0.0987 0.44117-0.14844 0.85742-0.14844h0.60352c0.35875 0 0.60539 0.0569 0.74414 0.17188 0.1375 0.1125 0.20703 0.31562 0.20703 0.60937v0.10547h2.5137v-0.66992c0-0.745-0.25914-1.3126-0.77539-1.7051-0.51625-0.39375-1.2608-0.58984-2.2383-0.58984h-1.5684zm82.32 0c-0.67 0-1.1723 0.0391-1.5098 0.11914-0.3375 0.0813-0.62313 0.22172-0.85938 0.41797-0.2775 0.2275-0.48711 0.5175-0.63086 0.875-0.145 0.35625-0.21875 0.76304-0.21875 1.2168v0.60547c0 0.805 0.18454 1.4103 0.55079 1.8203 0.365 0.40875 0.94312 0.65664 1.7344 0.74414l2.127 0.23047c0.44625 0.0525 0.73188 0.12921 0.85938 0.23046 0.1275 0.1 0.1914 0.26555 0.1914 0.49805v0.42578c0.00001 0.27125-0.0815 0.46086-0.24023 0.56836-0.16 0.1075-0.43969 0.16016-0.83594 0.16016h-0.65625c-0.47625 0-0.80929-0.0709-0.99804-0.21094-0.1875-0.13875-0.28125-0.38648-0.28125-0.74023v-0.0977h-2.5137v0.67578c0 0.8575 0.2586 1.4832 0.77735 1.877 0.51875 0.39375 1.349 0.58985 2.4902 0.58985h2.1328c0.85 0 1.5236-0.24352 2.0274-0.72852 0.50375-0.485 0.75391-1.1334 0.75391-1.9434v-0.93945c0-0.7075-0.20399-1.2572-0.61524-1.6484-0.41125-0.3925-1.0361-0.63617-1.8711-0.73242l-1.9356-0.21484c-0.705-0.08-1.0566-0.29946-1.0566-0.65821v-0.40625c0-0.24125 0.0781-0.40906 0.23437-0.50781 0.15375-0.0987 0.43922-0.14844 0.85547-0.14844h0.60352c0.35875 0 0.60664 0.0569 0.74414 0.17188 0.1375 0.1125 0.20703 0.31562 0.20703 0.60937v0.10547h2.5137v-0.66992c0-0.745-0.25789-1.3126-0.77539-1.7051-0.51625-0.39375-1.262-0.58984-2.2383-0.58984h-1.5664zm-74.512 0.11719v9.7715h7.4492v-2.1797h-4.8301v-1.8379h4.5859v-1.8828h-4.5859v-1.6934h4.7246v-2.1777h-7.3438zm12.645 0-2.8086 9.7715h2.8086l0.44726-1.707h3.0762l0.44141 1.707h2.8086l-2.7422-9.7715h-4.0312zm9.3574 0v9.7715h2.6191v-3.8203h3.4121v3.8203h2.6191v-9.7715h-2.6191v3.6543h-3.4121v-3.6543h-2.6191zm14.057 0-2.8105 9.7715h2.8105l0.44727-1.707h3.0762l0.43945 1.707h2.8066l-2.7422-9.7715h-4.0273zm8.791 0 1.5039 9.7715h3.7734l1.2402-6.6289 1.1934 6.6289h3.7363l1.625-9.7715h-2.6289l-1.0254 7.4863-1.3984-7.4863h-2.9258l-1.5234 7.4863-0.92383-7.4863h-2.6465zm15.861 0v9.7715h2.6172v-3.8984h0.19141l2.5664 3.8984h3.2344l-3.543-5.041 3.2227-4.7305h-3.1172l-2.3496 3.668h-0.20508v-3.668h-2.6172zm-46.143 2.0273h0.16992l0.97266 4.0488h-2.1406l0.99805-4.0488zm23.412 0h0.16992l0.97266 4.0488h-2.1406l0.99805-4.0488z" transform="matrix(.8 0 0 -.8 70.21 454.54)" fill="#036"/><path d="m61.486 51.219c-0.45625 0.805-0.73828 1.74-0.73828 2.75 0 2.94 2.2292 5.3203 4.9805 5.3203 1.1538 0 2.1948-0.43266 3.041-1.1289-0.69875-0.845-1.3574-1.5973-1.9824-2.2773-0.2575 0.7-0.92273 1.2031-1.709 1.2031-1.0125 0-1.8301-0.82008-1.8301-1.8301 0-0.79375 0.50469-1.465 1.2109-1.7188-1.1488-1.0562-2.1352-1.8021-2.9727-2.3184zm30.299 0c-0.839 0.516-1.825 1.262-2.973 2.318 0.705 0.25375 1.209 0.925 1.209 1.7188 0 1.01-0.81758 1.8301-1.8301 1.8301-0.78625 0-1.4508-0.50312-1.707-1.2031-0.62375 0.68-1.2824 1.4323-1.9824 2.2773 0.845 0.69625 1.8853 1.1289 3.0391 1.1289 2.7512 0 4.9824-2.3803 4.9824-5.3203 0-1.01-0.28453-1.945-0.73828-2.75zm-15.15 8.1504c-2.8175 4.0012-4.0664 9.082-4.0664 9.082l-1.4082-3.293c-3.3812 0.46625-3.4648 2.9082-3.4648 2.9082 3.69 0.85 8.9395 15.604 8.9395 15.604s5.2507-14.754 8.9395-15.604c0 0-0.08234-2.442-3.4648-2.9082l-1.4082 3.293s-1.2477-5.0808-4.0664-9.082z" transform="matrix(.8 0 0 -.8 70.21 454.54)" fill="#ffd700"/><path d="m144.24 430.57c-0.935-1.629-3.989-6.794-8.106-12.128l-0.724-0.937 0.083 1.181c0.004 0.07 0.501 7.017 2.19 14.942-0.444 0.662-2.701 3.913-6.161 6.979-3.459-3.066-5.716-6.317-6.161-6.979 1.692-7.925 2.191-14.872 2.195-14.942l0.083-1.181-0.724 0.937c-4.119 5.334-7.173 10.499-8.108 12.128-0.766-1.354-2.617-5.507-1.058-11.953 0.118 0.034 0.259 0.056 0.424 0.056 1.47 0 4.329-1.739 9.648-9.879 0.344 1.765 1.303 5.682 3.421 8.354l0.28 0.355 0.281-0.354c2.12-2.673 3.08-6.59 3.423-8.355 5.319 8.14 8.177 9.879 9.647 9.879 0.165 0 0.305-0.022 0.424-0.056 1.558 6.446-0.291 10.599-1.057 11.953" fill="#fff"/></g></g></svg>
